<?xml version="1.0" standalone="no"?>
<!DOCTYPE svg PUBLIC "-//W3C//DTD SVG 20010904//EN"
 "http://www.w3.org/TR/2001/REC-SVG-20010904/DTD/svg10.dtd">
<svg version="1.0" xmlns="http://www.w3.org/2000/svg"
 width="300.000000pt" height="300.000000pt" viewBox="0 0 300.000000 300.000000"
 preserveAspectRatio="xMidYMid meet">
<metadata>
Created by potrace 1.14, written by Peter Selinger 2001-2017
</metadata>
<g transform="translate(0.000000,300.000000) scale(0.100000,-0.100000)"
fill="#000000" stroke="none">
<path d="M175 2651 c-11 -5 -31 -21 -45 -36 l-25 -27 -3 -1109 c-2 -980 0
-1113 13 -1139 32 -62 0 -60 828 -60 l753 0 140 -34 c76 -18 164 -36 195 -40
80 -8 206 10 303 44 82 29 89 30 276 30 151 0 197 3 220 15 63 33 60 -34 60
1180 l0 1105 -34 38 -34 37 -1314 2 c-722 1 -1322 -2 -1333 -6z m2649 -52 l26
-20 0 -1108 0 -1108 -23 -21 c-20 -19 -35 -21 -180 -24 -86 -2 -157 -1 -157 2
0 3 22 19 48 37 54 37 162 131 162 142 0 4 -6 15 -13 24 -11 16 -15 16 -63 -7
-173 -83 -468 -96 -924 -40 -151 18 -268 27 -395 28 -206 1 -258 -8 -329 -59
-54 -38 -54 -38 49 -50 106 -12 455 -69 455 -74 0 -4 -291 -5 -647 -3 -646 3
-647 3 -670 24 l-23 21 0 1104 0 1104 25 24 24 25 1304 0 1304 0 27 -21z"/>
<path d="M1200 2496 c-132 -37 -265 -144 -327 -262 -111 -211 -75 -462 92
-629 103 -103 229 -155 375 -155 71 0 186 22 202 38 4 4 -22 37 -57 72 l-66
65 -77 1 c-105 2 -177 30 -246 97 -146 145 -149 365 -5 509 56 56 104 82 183
98 160 33 322 -53 394 -208 34 -73 37 -190 8 -266 l-19 -48 -151 151 c-83 83
-155 151 -159 151 -4 0 -7 -53 -7 -117 l0 -118 267 -267 c146 -148 267 -268
269 -268 1 0 3 55 3 121 l-1 121 -45 49 -45 48 30 63 c43 90 54 141 54 243 -1
109 -25 196 -80 281 -71 109 -204 206 -322 233 -61 14 -215 12 -270 -3z"/>
<path d="M1990 1980 l0 -510 90 0 90 0 0 426 0 426 134 -4 c131 -3 135 -4 177
-33 83 -59 108 -166 59 -253 -33 -59 -91 -92 -177 -100 l-67 -7 -32 -75 c-18
-41 -33 -78 -33 -82 -1 -5 25 -8 57 -8 l57 0 93 -145 94 -145 105 0 c81 0 102
3 97 13 -4 6 -48 74 -97 151 -49 76 -91 144 -93 150 -2 6 14 22 37 36 54 33
113 108 139 178 32 83 26 205 -13 284 -37 75 -99 138 -172 174 l-60 29 -242 3
-243 3 0 -511z"/>
<path d="M250 2440 c-19 -19 -20 -33 -20 -224 0 -191 1 -205 21 -230 l20 -26
203 0 c193 0 204 1 222 21 17 19 19 41 22 223 3 193 2 203 -18 229 l-21 27
-205 0 c-191 0 -205 -1 -224 -20z m370 -220 l0 -140 -145 0 -145 0 0 133 c0
74 3 137 7 140 3 4 69 7 145 7 l138 0 0 -140z"/>
<path d="M410 2215 l0 -76 68 3 67 3 3 73 3 72 -71 0 -70 0 0 -75z"/>
<path d="M330 1790 l0 -80 125 0 125 0 0 80 0 80 -125 0 -125 0 0 -80z"/>
<path d="M300 1455 l0 -175 155 0 155 0 -2 173 -3 172 -152 3 -153 3 0 -176z"/>
<path d="M700 1450 l0 -111 108 3 107 3 2 108 2 107 -109 0 -110 0 0 -110z"/>
<path d="M840 935 l0 -295 65 0 65 0 0 92 0 93 93 -93 92 -92 95 0 95 0 -138
138 -137 137 130 130 c71 71 130 133 130 137 0 5 -39 8 -88 8 l-87 0 -85 -85
c-47 -47 -88 -85 -92 -85 -5 0 -8 47 -8 105 l0 105 -65 0 -65 0 0 -295z"/>
<path d="M1519 1194 c-15 -3 -51 -19 -80 -37 -132 -79 -183 -240 -117 -371 86
-174 309 -221 452 -95 121 107 133 291 27 412 -60 68 -184 108 -282 91z m146
-153 c128 -73 82 -272 -66 -288 -92 -9 -169 62 -169 155 0 124 125 195 235
133z"/>
<path d="M2134 1181 c-23 -10 -45 -24 -48 -30 -11 -18 -26 -13 -26 9 0 18 -7
20 -65 20 l-65 0 0 -275 0 -275 64 0 64 0 4 189 c3 182 4 190 26 214 13 14 36
27 50 30 34 7 87 -15 101 -41 7 -13 11 -92 11 -206 l0 -186 64 0 64 0 4 189
c3 182 4 190 26 214 28 30 65 38 104 25 51 -18 58 -48 58 -248 l0 -180 65 0
65 0 0 201 c0 224 -7 264 -55 314 -61 66 -177 69 -268 9 l-39 -26 -27 26 c-51
49 -109 58 -177 27z"/>
<path d="M330 1100 l0 -80 125 0 125 0 0 80 0 80 -125 0 -125 0 0 -80z"/>
<path d="M240 940 c-19 -19 -20 -33 -20 -228 0 -172 3 -211 16 -230 15 -22 20
-22 223 -22 189 0 209 2 224 18 15 16 17 48 17 234 0 195 -2 216 -18 231 -16
15 -47 17 -220 17 -189 0 -203 -1 -222 -20z m370 -230 l0 -141 -142 3 -143 3
-3 138 -3 137 146 0 145 0 0 -140z"/>
<path d="M400 715 l0 -75 70 0 70 0 0 75 0 75 -70 0 -70 0 0 -75z"/>
</g>
</svg>
