<?xml version="1.0" standalone="no"?>
<!DOCTYPE svg PUBLIC "-//W3C//DTD SVG 20010904//EN"
 "http://www.w3.org/TR/2001/REC-SVG-20010904/DTD/svg10.dtd">
<svg version="1.0" xmlns="http://www.w3.org/2000/svg"
 width="1969.000000pt" height="1969.000000pt" viewBox="0 0 1969.000000 1969.000000"
 preserveAspectRatio="xMidYMid meet">

<g transform="translate(0.000000,1969.000000) scale(0.100000,-0.100000)"
fill="#000000" stroke="none">
<path d="M5290 13574 c-140 -38 -242 -149 -270 -293 -15 -79 -14 -6762 1
-6833 32 -153 149 -270 299 -298 34 -6 870 -10 2384 -10 l2332 0 362 -90 c414
-103 463 -114 627 -130 343 -36 720 22 1076 165 l135 55 576 0 c342 0 597 4
628 10 104 20 195 82 250 171 65 106 60 -173 58 3570 l-3 3404 -24 60 c-33 82
-124 173 -206 206 l-60 24 -4055 2 c-3546 2 -4062 0 -4110 -13z m8181 -116
c57 -25 114 -83 140 -141 l24 -52 0 -3400 0 -3400 -21 -46 c-31 -66 -77 -113
-136 -140 l-53 -24 -482 -3 c-266 -2 -483 1 -483 5 0 4 46 37 102 72 154 98
309 222 455 366 l132 130 -31 68 c-17 37 -35 67 -40 67 -4 0 -50 -21 -101 -46
-586 -295 -1437 -344 -2887 -164 -617 76 -1044 110 -1402 110 -287 0 -599 -33
-733 -78 -64 -22 -368 -224 -351 -233 6 -4 43 -10 81 -14 375 -37 1678 -241
1750 -275 12 -5 -779 -8 -2040 -7 l-2060 2 -45 21 c-67 31 -106 68 -137 132
l-28 57 0 3400 0 3400 23 50 c37 81 93 130 171 151 36 10 909 12 4081 11 3729
-2 4038 -3 4071 -19z"/>
<path d="M8720 13130 c-668 -77 -1214 -524 -1414 -1158 -57 -180 -70 -271 -70
-492 0 -240 14 -340 75 -524 143 -433 438 -777 834 -976 403 -201 844 -233
1285 -91 53 17 103 36 113 43 15 12 -5 35 -197 227 l-213 213 -83 -11 c-235
-31 -463 8 -672 115 -111 58 -194 121 -289 221 -196 205 -295 440 -306 723
-13 335 96 612 332 845 379 376 968 431 1410 132 86 -59 235 -206 294 -292
220 -317 259 -722 105 -1088 -20 -48 -38 -87 -41 -87 -3 0 -224 216 -491 480
l-487 479 -3 -387 -2 -387 827 -827 c456 -456 831 -828 835 -828 5 0 8 174 8
387 l0 386 -146 147 -145 147 37 58 c51 80 137 263 168 359 147 447 93 959
-143 1365 -250 428 -681 725 -1171 807 -106 18 -350 26 -450 14z"/>
<path d="M10930 11470 l0 -1610 275 0 275 0 0 1336 0 1335 383 -3 c361 -4 386
-5 447 -26 242 -81 406 -289 426 -540 22 -279 -185 -562 -457 -627 -43 -10
-117 -15 -224 -15 l-160 0 -111 -273 -111 -272 188 -3 187 -2 293 -455 294
-455 324 0 c282 0 322 2 317 15 -3 8 -147 235 -321 504 -173 269 -315 493
-315 498 0 4 38 30 83 56 282 163 490 467 548 797 17 98 17 295 0 390 -77 431
-416 805 -831 914 -156 41 -241 46 -892 46 l-618 0 0 -1610z"/>
<path d="M5576 12970 c-51 -16 -96 -54 -121 -104 l-25 -50 0 -623 c0 -681 -1
-664 58 -726 61 -65 31 -62 662 -65 413 -3 590 0 629 8 66 15 130 73 149 136
17 59 17 1229 0 1287 -17 55 -82 122 -133 136 -48 13 -1175 14 -1219 1z m1074
-760 l0 -440 -455 0 -455 0 0 433 c0 239 3 437 7 440 3 4 208 7 455 7 l448 0
0 -440z"/>
<path d="M5980 12215 l0 -225 220 0 220 0 0 225 0 225 -220 0 -220 0 0 -225z"/>
<path d="M5720 10865 l0 -245 400 0 400 0 0 245 0 245 -400 0 -400 0 0 -245z"/>
<path d="M5640 9820 l0 -540 480 0 480 0 0 540 0 540 -480 0 -480 0 0 -540z"/>
<path d="M6880 9820 l0 -340 340 0 340 0 0 340 0 340 -340 0 -340 0 0 -340z"/>
<path d="M7320 8200 l0 -930 210 0 210 0 0 282 0 283 283 -283 282 -282 295 0
295 0 -433 432 -432 433 432 432 433 433 -295 0 -294 0 -283 -282 -283 -283 0
348 0 347 -210 0 -210 0 0 -930z"/>
<path d="M9495 9005 c-348 -64 -617 -312 -717 -661 -30 -105 -32 -340 -4 -449
24 -94 103 -255 164 -336 127 -167 328 -291 542 -335 102 -20 321 -15 415 11
151 41 352 166 443 274 282 334 304 787 57 1136 -195 275 -564 422 -900 360z
m274 -410 c309 -73 474 -411 339 -694 -38 -79 -140 -186 -213 -223 -150 -77
-318 -78 -469 -4 -74 36 -178 147 -217 231 -174 371 161 784 560 690z"/>
<path d="M11499 9009 c-88 -20 -271 -118 -309 -164 -23 -28 -30 -15 -30 55 l0
70 -205 0 -205 0 0 -860 0 -860 205 0 205 0 0 558 c0 630 -2 615 76 701 58 65
126 94 219 95 122 1 217 -60 269 -173 21 -45 21 -58 24 -613 l3 -568 204 0
204 0 3 573 c3 572 3 572 26 614 58 110 149 167 266 167 119 1 211 -56 263
-162 l28 -57 3 -567 3 -568 205 0 205 0 -4 618 c-3 598 -4 620 -25 701 -25 96
-86 219 -139 280 -141 166 -402 215 -666 125 -85 -29 -195 -92 -253 -146 l-41
-38 -80 78 c-87 86 -152 124 -247 141 -69 13 -155 13 -207 0z"/>
<path d="M5720 8715 l0 -245 400 0 400 0 0 245 0 245 -400 0 -400 0 0 -245z"/>
<path d="M5536 8268 c-51 -14 -118 -81 -134 -134 -16 -56 -17 -1230 -1 -1289
15 -52 82 -119 134 -134 51 -14 1165 -15 1214 -1 56 16 100 52 126 104 l25 50
0 623 c0 687 2 664 -63 731 -59 61 -69 62 -696 61 -355 -1 -581 -5 -605 -11z
m1082 -760 l2 -438 -455 0 -455 0 0 440 0 440 453 -2 452 -3 3 -437z"/>
<path d="M5940 7515 l0 -225 220 0 220 0 0 225 0 225 -220 0 -220 0 0 -225z"/>
</g>
</svg>
